<?xml version="1.0" encoding="UTF-8" standalone="no"?>
<!-- Created with Inkscape (http://www.inkscape.org/) -->

<svg
   width="2160"
   height="2160"
   viewBox="0 0 571.49999 571.5"
   version="1.1"
   id="svg1"
   inkscape:version="1.3.2 (091e20e, 2023-11-25)"
   sodipodi:docname="Chemomile_Logo.svg"
   inkscape:export-filename="Chemomile_Logo.png"
   inkscape:export-xdpi="300"
   inkscape:export-ydpi="300"
   xmlns:inkscape="http://www.inkscape.org/namespaces/inkscape"
   xmlns:sodipodi="http://sodipodi.sourceforge.net/DTD/sodipodi-0.dtd"
   xmlns:xlink="http://www.w3.org/1999/xlink"
   xmlns="http://www.w3.org/2000/svg"
   xmlns:svg="http://www.w3.org/2000/svg">
  <sodipodi:namedview
     id="namedview1"
     pagecolor="#ffffff"
     bordercolor="#000000"
     borderopacity="0.25"
     inkscape:showpageshadow="2"
     inkscape:pageopacity="0.0"
     inkscape:pagecheckerboard="0"
     inkscape:deskcolor="#d1d1d1"
     inkscape:document-units="mm"
     inkscape:zoom="0.5962963"
     inkscape:cx="1080"
     inkscape:cy="975.18634"
     inkscape:window-width="1920"
     inkscape:window-height="942"
     inkscape:window-x="0"
     inkscape:window-y="25"
     inkscape:window-maximized="0"
     inkscape:current-layer="layer2" />
  <defs
     id="defs1">
    <linearGradient
       id="linearGradient1"
       inkscape:collect="always">
      <stop
         style="stop-color:#ffffff;stop-opacity:1;"
         offset="0"
         id="stop1" />
      <stop
         style="stop-color:#ffffff;stop-opacity:0;"
         offset="1"
         id="stop2" />
    </linearGradient>
    <rect
       x="212.99199"
       y="1157.9019"
       width="2638.4527"
       height="1532.5424"
       id="rect1" />
    <linearGradient
       inkscape:collect="always"
       xlink:href="#linearGradient1"
       id="linearGradient2"
       x1="540.20058"
       y1="1372.5623"
       x2="2526.776"
       y2="1372.5623"
       gradientUnits="userSpaceOnUse" />
  </defs>
  <g
     inkscape:groupmode="layer"
     id="layer2"
     inkscape:label="Layer 2"
     transform="matrix(0.73886203,0,0,0.73886203,74.026171,74.102934)">
    <text
       xml:space="preserve"
       transform="matrix(0.34296847,0,0,0.34296847,-233.98024,-197.1782)"
       id="text1"
       style="font-style:normal;font-variant:normal;font-weight:normal;font-stretch:normal;font-size:400px;font-family:'Helvetica Neue';-inkscape-font-specification:'Helvetica Neue';white-space:pre;shape-inside:url(#rect1);display:inline;fill:#ffffff;fill-opacity:1;stroke:#000000;stroke-width:5.1301;stroke-dasharray:none"
       x="995.19983"
       y="0"
       inkscape:label="text1"><tspan
         x="521.67188"
         y="1534.7693"
         id="tspan4"><tspan
           style="font-family:Futura;-inkscape-font-specification:Futura;text-align:center;text-anchor:middle"
           id="tspan1">Chem  mile</tspan></tspan></text>
  </g>
  <g
     inkscape:groupmode="layer"
     id="layer1"
     inkscape:label="Layer 3">
    <g
       id="g1"
       transform="matrix(0.5934157,0,0,0.5934157,321.3644,160.87238)">
      <path
         style="fill:#ffffff;fill-opacity:1;stroke:#000000;stroke-width:0.979274"
         d="m 160.57404,225.119 c 0,0 -4.60059,-15.46752 0.83287,-16.73665 5.43346,-1.26913 4.04535,17.49019 2.61758,16.89529 -1.42777,-0.59491 -3.45045,-0.15864 -3.45045,-0.15864 z"
         id="path5"
         transform="matrix(2.0195507,0,0,2.0195507,-318.16591,-253.11929)" />
      <path
         style="fill:#ffffff;fill-opacity:1;stroke:#000000;stroke-width:0.979274"
         d="m 164.26246,225.43628 c 0,0 2.69689,-17.88679 8.4873,-15.9831 5.7904,1.90369 -5.59211,17.64883 -5.59211,17.64883 z"
         id="path6"
         transform="matrix(2.0195507,0,0,2.0195507,-318.16591,-253.11929)" />
      <path
         style="fill:#ffffff;fill-opacity:1;stroke:#000000;stroke-width:0.979274"
         d="m 167.07834,226.98303 c 0,0 8.24934,-15.22955 13.00857,-11.69978 4.75924,3.52976 -10.03405,13.40517 -10.03405,13.40517 z"
         id="path7"
         transform="matrix(2.0195507,0,0,2.0195507,-318.16591,-253.11929)" />
      <path
         style="fill:#ffffff;fill-opacity:1;stroke:#000000;stroke-width:0.979274"
         d="m 170.01319,228.84707 c 0,0 13.36553,-12.05673 15.86413,-5.98871 2.49859,6.06803 -15.22956,9.51847 -15.22956,9.51847 z"
         id="path8"
         transform="matrix(2.0195507,0,0,2.0195507,-318.16591,-253.11929)" />
      <path
         style="fill:#ffffff;fill-opacity:1;stroke:#000000;stroke-width:0.979274"
         d="m 170.76674,232.21819 c 0,0 17.4902,-4.75923 17.56951,1.15015 0.0793,5.90938 -16.93494,3.25214 -17.41087,2.6969 -0.47592,-0.55524 -0.15864,-3.84705 -0.15864,-3.84705 z"
         id="path9"
         transform="matrix(2.0195507,0,0,2.0195507,-318.16591,-253.11929)" />
      <path
         style="fill:#ffffff;fill-opacity:1;stroke:#000000;stroke-width:0.979274"
         d="m 170.6081,237.25505 c 0,0 14.9916,2.57792 14.71397,8.32867 -0.27762,5.75074 -16.1814,-3.33147 -16.26072,-5.79041 -0.0793,-2.45894 1.54675,-2.53826 1.54675,-2.53826 z"
         id="path10"
         transform="matrix(2.0195507,0,0,2.0195507,-318.16591,-253.11929)" />
      <path
         style="fill:#ffffff;fill-opacity:1;stroke:#000000;stroke-width:0.979274"
         d="m 169.73557,239.19841 c 0,0 16.1814,9.43915 11.14455,13.12755 -5.03686,3.68841 -12.45333,-12.61197 -12.45333,-12.61197 z"
         id="path11"
         transform="matrix(2.0195507,0,0,2.0195507,-318.16591,-253.11929)" />
      <path
         style="fill:#ffffff;fill-opacity:1;stroke:#000000;stroke-width:0.979274"
         d="m 164.69872,242.45055 c 0,0 3.64874,14.07941 9.79609,13.8811 6.14735,-0.1983 -6.62327,-15.94343 -6.62327,-15.94343 z"
         id="path12"
         transform="matrix(2.0195507,0,0,2.0195507,-318.16591,-253.11929)" />
      <path
         style="fill:#ffffff;fill-opacity:1;stroke:#000000;stroke-width:0.979274"
         d="m 163.78653,242.68851 c 0,0 5.75074,14.95193 -0.79321,17.37121 -6.54395,2.41928 -1.07083,-16.81597 -1.07083,-16.81597 z"
         id="path13"
         transform="matrix(2.0195507,0,0,2.0195507,-318.16591,-253.11929)" />
      <path
         style="fill:#ffffff;fill-opacity:1;stroke:#000000;stroke-width:0.979274"
         d="m 161.88284,243.08511 c 0,0 -2.14166,16.77631 -7.6941,15.15024 -5.55244,-1.62607 3.84705,-17.17292 3.84705,-17.17292 z"
         id="path14"
         transform="matrix(2.0195507,0,0,2.0195507,-318.16591,-253.11929)" />
      <path
         style="fill:#ffffff;fill-opacity:1;stroke:#000000;stroke-width:0.979274"
         d="m 158.35307,241.1021 c 0,0 -9.39949,16.10208 -13.72246,11.81877 -4.32298,-4.28331 11.3825,-13.2862 11.3825,-13.2862 z"
         id="path15"
         transform="matrix(2.0195507,0,0,2.0195507,-318.16591,-253.11929)" />
      <path
         style="fill:#ffffff;fill-opacity:1;stroke:#000000;stroke-width:0.979274"
         d="m 155.65617,239.55535 c 0,0 -12.77062,11.62047 -15.54684,5.11617 -2.77622,-6.50428 13.84145,-8.40798 13.84145,-8.40798 z"
         id="path16"
         transform="matrix(2.0195507,0,0,2.0195507,-318.16591,-253.11929)" />
      <path
         style="fill:#ffffff;fill-opacity:1;stroke:#000000;stroke-width:0.979274"
         d="m 154.14908,237.01709 c 0,0 -18.2834,3.60908 -17.49019,-2.57792 0.7932,-6.18701 17.52985,-1.46743 17.52985,-1.46743 z"
         id="path17"
         transform="matrix(2.0195507,0,0,2.0195507,-318.16591,-253.11929)" />
      <path
         style="fill:#ffffff;fill-opacity:1;stroke:#000000;stroke-width:0.979274"
         d="m 154.10942,231.78193 c 0,0 -15.1899,-1.98302 -14.35703,-8.20968 0.83286,-6.22667 15.94344,4.67991 15.94344,4.67991 z"
         id="path18"
         transform="matrix(2.0195507,0,0,2.0195507,-318.16591,-253.11929)" />
      <path
         style="fill:#ffffff;fill-opacity:1;stroke:#000000;stroke-width:0.979274"
         d="m 154.4267,229.12469 c 0,0 -14.31737,-8.13036 -10.74794,-12.73096 3.56942,-4.60059 13.40518,11.42217 13.40518,11.42217 z"
         id="path19"
         transform="matrix(2.0195507,0,0,2.0195507,-318.16591,-253.11929)" />
      <path
         style="fill:#ffffff;fill-opacity:1;stroke:#000000;stroke-width:0.979274"
         d="m 156.76665,227.30032 c 0,0 -10.74794,-11.85844 -7.21817,-15.15024 3.52977,-3.29181 10.62896,9.75643 10.94624,12.92926 0.31729,3.17282 -3.72807,2.22098 -3.72807,2.22098 z"
         id="path20"
         transform="matrix(2.0195507,0,0,2.0195507,-318.16591,-253.11929)" />
      <path
         style="display:inline;fill:#f5bb2b;fill-opacity:1;stroke:#000000;stroke-width:2.07707"
         d="m 9.7510136,199.01671 -17.492059,10.09904 v 20.34037 L 9.8327836,239.60238 27.326048,229.50265 V 209.1373 Z"
         id="path4" />
      <path
         style="fill:#ffffff;stroke:#000000;stroke-width:2.07707"
         d="m -3.3979924,211.31154 v 15.78915"
         id="path1" />
      <path
         style="fill:#ffffff;stroke:#000000;stroke-width:2.07707"
         d="M 9.4921676,234.55524 23.104586,226.69611"
         id="path2" />
      <path
         style="fill:#ffffff;stroke:#000000;stroke-width:2.07707"
         d="m 9.4662876,203.90876 13.7072884,7.91391"
         id="path3"
         inkscape:label="path3" />
    </g>
  </g>
</svg>
