<?xml version="1.0" encoding="UTF-8" standalone="no"?>
<!-- Created with Inkscape (http://www.inkscape.org/) -->

<svg
   width="2160"
   height="2160"
   viewBox="0 0 571.49999 571.5"
   version="1.1"
   id="svg1"
   inkscape:version="1.3.2 (091e20e, 2023-11-25)"
   sodipodi:docname="Chemomile_Icon.svg"
   inkscape:export-filename="Chemomile_Icon.png"
   inkscape:export-xdpi="300"
   inkscape:export-ydpi="300"
   xmlns:inkscape="http://www.inkscape.org/namespaces/inkscape"
   xmlns:sodipodi="http://sodipodi.sourceforge.net/DTD/sodipodi-0.dtd"
   xmlns="http://www.w3.org/2000/svg"
   xmlns:svg="http://www.w3.org/2000/svg">
  <sodipodi:namedview
     id="namedview1"
     pagecolor="#ffffff"
     bordercolor="#000000"
     borderopacity="0.25"
     inkscape:showpageshadow="2"
     inkscape:pageopacity="0.0"
     inkscape:pagecheckerboard="0"
     inkscape:deskcolor="#d1d1d1"
     inkscape:document-units="mm"
     inkscape:zoom="0.25822567"
     inkscape:cx="542.16144"
     inkscape:cy="1113.3672"
     inkscape:window-width="1392"
     inkscape:window-height="942"
     inkscape:window-x="0"
     inkscape:window-y="25"
     inkscape:window-maximized="0"
     inkscape:current-layer="layer2" />
  <defs
     id="defs1" />
  <g
     inkscape:groupmode="layer"
     id="layer3"
     inkscape:label="Layer 3"
     transform="matrix(1.4921693,0,0,1.4921693,-161.05454,-112.9173)">
    <path
       style="fill:#ffffff;fill-opacity:1;stroke:#000000;stroke-width:6.29756"
       d="m 286.1505,208.9305 c 0,0 -29.58573,-99.46929 5.35604,-107.63088 34.94178,-8.161577 26.01505,112.4768 16.83328,108.65107 -9.1818,-3.82575 -22.18932,-1.02019 -22.18932,-1.02019 z"
       id="path5" />
    <path
       style="fill:#ffffff;fill-opacity:1;stroke:#000000;stroke-width:6.29756"
       d="m 309.87012,210.97088 c 0,0 17.34334,-115.027296 54.58058,-102.78493 37.23721,12.24238 -35.96198,113.49701 -35.96198,113.49701 z"
       id="path6" />
    <path
       style="fill:#ffffff;fill-opacity:1;stroke:#000000;stroke-width:6.29756"
       d="m 327.97863,220.91782 c 0,0 53.05027,-97.93899 83.6562,-75.23959 30.60593,22.6994 -64.5275,86.2067 -64.5275,86.2067 z"
       id="path7" />
    <path
       style="fill:#ffffff;fill-opacity:1;stroke:#000000;stroke-width:6.29756"
       d="m 346.85226,232.90514 c 0,0 85.95168,-77.53503 102.01982,-38.51247 16.06809,39.02256 -97.93901,61.21187 -97.93901,61.21187 z"
       id="path8" />
    <path
       style="fill:#ffffff;fill-opacity:1;stroke:#000000;stroke-width:6.29756"
       d="m 351.69821,254.58434 c 0,0 112.47683,-30.60593 112.9869,7.39644 0.5101,38.00235 -108.9061,20.91404 -111.96671,17.34336 -3.06056,-3.57069 -1.02019,-24.7398 -1.02019,-24.7398 z"
       id="path9" />
    <path
       style="fill:#ffffff;fill-opacity:1;stroke:#000000;stroke-width:6.29756"
       d="m 350.67804,286.97564 c 0,0 96.40867,16.5782 94.62333,53.56037 -1.78534,36.98217 -104.06018,-21.42415 -104.57029,-37.23721 -0.51009,-15.81307 9.94696,-16.32316 9.94696,-16.32316 z"
       id="path10" />
    <path
       style="fill:#ffffff;fill-opacity:1;stroke:#000000;stroke-width:6.29756"
       d="m 345.06692,299.47305 c 0,0 104.06018,60.70176 71.66892,84.42135 -32.3913,23.71961 -80.08553,-81.1057 -80.08553,-81.1057 z"
       id="path11" />
    <path
       style="fill:#ffffff;fill-opacity:1;stroke:#000000;stroke-width:6.29756"
       d="m 312.67566,320.38711 c 0,0 23.46454,90.54254 62.99719,89.26728 39.53269,-1.27524 -42.59325,-102.52985 -42.59325,-102.52985 z"
       id="path12" />
    <path
       style="fill:#ffffff;fill-opacity:1;stroke:#000000;stroke-width:6.29756"
       d="m 306.80951,321.91741 c 0,0 36.98218,96.15363 -5.10098,111.71163 -42.08317,15.55803 -6.88635,-108.14096 -6.88635,-108.14096 z"
       id="path13" />
    <path
       style="fill:#ffffff;fill-opacity:1;stroke:#000000;stroke-width:6.29756"
       d="m 294.56716,324.46788 c 0,0 -13.7727,107.88592 -49.47961,97.4289 -35.70693,-10.45702 24.73979,-110.43643 24.73979,-110.43643 z"
       id="path14" />
    <path
       style="fill:#ffffff;fill-opacity:1;stroke:#000000;stroke-width:6.29756"
       d="m 271.86774,311.71542 c 0,0 -60.44672,103.55007 -88.24711,76.00472 -27.80039,-27.54533 73.19919,-85.44155 73.19919,-85.44155 z"
       id="path15" />
    <path
       style="fill:#ffffff;fill-opacity:1;stroke:#000000;stroke-width:6.29756"
       d="m 254.52438,301.7685 c 0,0 -82.12593,74.72949 -99.97939,32.90136 -17.85345,-41.82812 89.01226,-54.07047 89.01226,-54.07047 z"
       id="path16" />
    <path
       style="fill:#ffffff;fill-opacity:1;stroke:#000000;stroke-width:6.29756"
       d="m 244.8325,285.44532 c 0,0 -117.57779,23.20949 -112.4768,-16.57822 5.10098,-39.78771 112.73185,-9.43682 112.73185,-9.43682 z"
       id="path17" />
    <path
       style="fill:#ffffff;fill-opacity:1;stroke:#000000;stroke-width:6.29756"
       d="m 244.57745,251.77879 c 0,0 -97.68394,-12.75246 -92.3279,-52.79523 5.35604,-40.04276 102.52988,30.09583 102.52988,30.09583 z"
       id="path18" />
    <path
       style="fill:#ffffff;fill-opacity:1;stroke:#000000;stroke-width:6.29756"
       d="m 246.61785,234.69049 c 0,0 -92.07286,-52.28514 -69.1184,-81.87088 22.95444,-29.58573 86.20671,73.45424 86.20671,73.45424 z"
       id="path19" />
    <path
       style="fill:#ffffff;fill-opacity:1;stroke:#000000;stroke-width:6.29756"
       d="m 261.66575,222.95821 c 0,0 -69.11839,-76.25979 -46.41899,-97.42889 22.69941,-21.1691 68.35327,62.74216 70.39364,83.14612 2.04041,20.40395 -23.97465,14.28277 -23.97465,14.28277 z"
       id="path20" />
  </g>
  <g
     inkscape:groupmode="layer"
     id="layer2"
     inkscape:label="Layer 2"
     transform="matrix(0.73886203,0,0,0.73886203,74.026171,74.102934)">
    <path
       style="display:inline;fill:#f5bb2b;fill-opacity:1;stroke:#000000;stroke-width:13.3573"
       d="m 283.07032,152.72853 -112.48881,64.94541 v 130.80589 l 113.01468,65.24908 112.49655,-64.9499 V 217.8125 Z"
       id="path4" />
    <path
       style="fill:#ffffff;stroke:#000000;stroke-width:13.3573"
       d="M 198.51104,231.79473 V 333.33241"
       id="path1" />
    <path
       style="fill:#ffffff;stroke:#000000;stroke-width:13.3573"
       d="m 281.40574,381.27149 87.53943,-50.54091"
       id="path2" />
    <path
       style="fill:#ffffff;stroke:#000000;stroke-width:13.3573"
       d="m 281.23929,184.18854 88.14953,50.89315"
       id="path3"
       inkscape:label="path3" />
  </g>
</svg>
